<?xml version="1.0" encoding="utf-8"?>
<!-- Generator: Adobe Illustrator 22.1.0, SVG Export Plug-In . SVG Version: 6.00 Build 0)  -->
<svg version="1.1" id="Layer_1" xmlns="http://www.w3.org/2000/svg" xmlns:xlink="http://www.w3.org/1999/xlink" x="0px" y="0px"
	 viewBox="0 0 155.4 31.5" style="enable-background:new 0 0 155.4 31.5;" xml:space="preserve">
<style type="text/css">
	.st0{fill:#FFBC00;}
	.st1{fill:#FFFFFF;}
</style>
<g>
	<g>
		<path class="st0" d="M75.6,31.2h-4.8l-3-8.5L66.1,26L63,31.2l-4.8-8.6l-3,8.5h-4.8l7.1-19.1L63,22.5c0.2-0.3,0.3-0.7,0.6-1.2
			c0.2-0.5,0.5-1,0.8-1.6l4.2-7.6L75.6,31.2z"/>
		<path class="st0" d="M96.1,31.2h-5l-1.9-4h-5.4l-1.8,4h-5l9.4-19.1L96.1,31.2z"/>
		<path class="st0" d="M111.6,31.2l-9.4-8.9v8.9h-4.5V12l9.4,9v-8.8h4.5V31.2z"/>
		<path class="st0" d="M118.5,31.2h-4.5v-19h4.5V31.2z"/>
		<path class="st0" d="M133.7,25.7c-0.1,1.6-0.7,2.9-1.9,3.9c-1.1,1-2.5,1.5-4.2,1.5c-1.9,0-3.4-0.5-4.5-1.6c-1.1-1.1-1.8-2.6-2-4.5
			l4.4-0.6c0.1,0.7,0.4,1.2,0.8,1.6c0.5,0.5,1,0.7,1.6,0.6c0.8-0.1,1.2-0.5,1.2-1.3c0.1-0.6-0.3-1.1-1.1-1.5l-2-0.6
			c-0.8-0.2-1.4-0.6-2-1.1c-1.6-1.3-2.4-2.9-2.2-4.8v0c0.1-1.5,0.7-2.7,1.8-3.7c1.1-1,2.4-1.5,3.9-1.5c2.4,0,4.3,1.2,5.7,3.7
			l-3.9,2.2c-0.5-1-1.2-1.5-2-1.4c-0.6,0.1-1,0.4-1,1c0,0.6,0.3,1,1,1.2h0l1.9,0.6c0.7,0.2,1.4,0.6,2,1
			C133.1,22,133.9,23.7,133.7,25.7L133.7,25.7z"/>
		<path class="st0" d="M148.5,31.2H144V24h-4.2v7.2h-4.5v-19h4.5v7.3h4.2v-7.3h4.5V31.2z"/>
		<path class="st0" d="M155.4,31.2h-4.5v-19h4.5V31.2z"/>
	</g>
	<g>
		<path class="st1" d="M4.5,31.4H0v-19h4.5V31.4z"/>
		<path class="st1" d="M21.1,31.5l-9.4-8.9v8.9H7.2V12.3l9.4,9v-8.8h4.5V31.5z"/>
		<path class="st1" d="M33.9,16.9h-3.5v14.5H26V16.9h-3.3v-4.5h11.3V16.9z"/>
		<path class="st1" d="M41.6,31.4h-4.5v-19h4.5V31.4z"/>
	</g>
	<g>
		<g>
			<rect x="23" class="st0" width="4.4" height="4.4"/>
			<rect x="29.6" class="st1" width="4.4" height="4.4"/>
		</g>
		<g>
			<rect x="23" y="6.2" class="st1" width="4.4" height="4.4"/>
			<rect x="29.6" y="6.2" class="st0" width="4.4" height="4.4"/>
		</g>
	</g>
</g>
</svg>
